<?xml version="1.0" standalone="no"?>
<!DOCTYPE svg PUBLIC "-//W3C//DTD SVG 20010904//EN"
 "http://www.w3.org/TR/2001/REC-SVG-20010904/DTD/svg10.dtd">
<svg version="1.0" xmlns="http://www.w3.org/2000/svg"
 width="265.000000pt" height="265.000000pt" viewBox="0 0 265.000000 265.000000"
 preserveAspectRatio="xMidYMid meet">
<metadata>
Created by potrace 1.11, written by Peter Selinger 2001-2013
</metadata>
<g transform="translate(0.000000,265.000000) scale(0.100000,-0.100000)"
fill="#000000" stroke="none">
<path d="M3 2593 c2 -5 109 -241 237 -526 l233 -518 -70 -335 -69 -334 177 0
c129 0 179 3 186 13 6 6 36 135 67 286 31 151 63 288 71 305 9 17 171 244 361
505 190 260 343 478 341 485 -2 6 11 35 30 64 18 29 33 55 33 57 0 3 -91 4
-202 3 l-202 -3 -173 -245 c-95 -135 -208 -298 -252 -363 l-78 -117 -18 47
c-15 39 -152 353 -273 626 l-25 57 -189 0 c-104 0 -187 -3 -185 -7z"/>
<path d="M1737 1939 c-179 -24 -315 -104 -397 -231 -54 -83 -73 -164 -68 -286
3 -90 7 -106 41 -175 61 -124 137 -179 432 -312 193 -87 249 -119 282 -161 36
-48 42 -117 15 -170 -46 -90 -120 -125 -275 -132 -127 -5 -209 9 -271 48 -50
32 -71 71 -93 175 l-17 75 -56 0 c-31 0 -105 -3 -163 -7 l-107 -6 0 -56 c1
-136 61 -283 149 -363 63 -57 181 -117 286 -144 98 -26 408 -27 509 -1 165 42
301 146 367 282 l34 70 0 150 c0 144 -1 152 -28 208 -60 121 -150 186 -443
318 -271 122 -331 169 -320 253 17 137 213 223 390 172 91 -27 175 -119 176
-193 0 -12 5 -25 10 -28 13 -8 284 -7 317 1 23 6 24 10 18 51 -33 221 -188
384 -419 443 -93 24 -271 33 -369 19z"/>
</g>
</svg>
